<?xml version="1.0" encoding="UTF-8" standalone="no"?>
<!-- Created with Inkscape (http://www.inkscape.org/) -->

<svg
   width="37.311005"
   height="62.095612"
   viewBox="0 0 37.311005 62.095612"
   version="1.1"
   id="svg5"
   xml:space="preserve"
   sodipodi:docname="mockup.svg"
   inkscape:version="1.2.2 (b0a8486541, 2022-12-01)"
   inkscape:export-filename="mockup_login.png"
   inkscape:export-xdpi="96"
   inkscape:export-ydpi="96"
   xmlns:inkscape="http://www.inkscape.org/namespaces/inkscape"
   xmlns:sodipodi="http://sodipodi.sourceforge.net/DTD/sodipodi-0.dtd"
   xmlns="http://www.w3.org/2000/svg"
   xmlns:svg="http://www.w3.org/2000/svg"><sodipodi:namedview
     id="namedview7"
     pagecolor="#505050"
     bordercolor="#eeeeee"
     borderopacity="1"
     inkscape:showpageshadow="0"
     inkscape:pageopacity="0"
     inkscape:pagecheckerboard="0"
     inkscape:deskcolor="#505050"
     inkscape:document-units="px"
     showgrid="false"
     inkscape:zoom="0.49073947"
     inkscape:cx="648.00168"
     inkscape:cy="423.85015"
     inkscape:window-width="1366"
     inkscape:window-height="699"
     inkscape:window-x="0"
     inkscape:window-y="32"
     inkscape:window-maximized="1"
     inkscape:current-layer="layer5"
     showguides="true" /><defs
     id="defs2" /><g
     inkscape:groupmode="layer"
     id="layer5"
     inkscape:label="pantalla 02"
     style="display:inline"
     transform="translate(-429.97977,-245.02853)"><g
       inkscape:groupmode="layer"
       id="layer6"
       inkscape:label="busqueda"
       style="display:inline"><g
         id="g1293"><path
           id="path2643-0-6"
           style="font-weight:bold;font-size:15.0172px;font-family:'Noto Looped Lao';-inkscape-font-specification:'Ubuntu Bold';fill:#000000;fill-opacity:1;stroke-width:5.54865;stroke-linecap:round"
           d="m 437.8611,245.02853 c -3.50115,0.0397 -6.80462,2.29114 -7.72252,6.48917 -0.0264,0.1304 -0.0384,0.26276 -0.0573,0.39425 -0.0177,0.13483 -0.039,0.26782 -0.0519,0.40489 -0.0213,0.21241 -0.0293,0.42602 -0.0338,0.63934 -0.001,0.0558 -0.0158,0.11166 -0.0158,0.16789 v 0.0141 46.85469 0.008 c 0,0.028 0.008,0.0544 0.008,0.0826 0.77365,7.45556 10.45978,8.39144 13.97545,5.58346 l 20.91765,-21.4148 c 2.93043,-4.55753 3.48403,-11.65921 0,-15.37049 L 443.906,247.40024 c -1.77025,-1.62341 -3.94373,-2.3947 -6.04484,-2.37083 z m 26.16658,31.54813 c 0,0.43922 -0.0264,0.85893 -0.0807,1.25733 a 9.5289622,10.455973 0 0 0 0.0807,-1.25733 z" /></g></g></g></svg>
