<?xml version="1.0" encoding="UTF-8" standalone="no"?>
<!-- Created with Inkscape (http://www.inkscape.org/) -->

<svg
   width="29.925964mm"
   height="26.458984mm"
   viewBox="0 0 29.925964 26.458984"
   version="1.1"
   id="svg5"
   xml:space="preserve"
   sodipodi:docname="lupa.svg"
   inkscape:version="1.2.2 (b0a8486541, 2022-12-01)"
   xmlns:inkscape="http://www.inkscape.org/namespaces/inkscape"
   xmlns:sodipodi="http://sodipodi.sourceforge.net/DTD/sodipodi-0.dtd"
   xmlns="http://www.w3.org/2000/svg"
   xmlns:svg="http://www.w3.org/2000/svg"><sodipodi:namedview
     id="namedview7"
     pagecolor="#505050"
     bordercolor="#eeeeee"
     borderopacity="1"
     inkscape:showpageshadow="0"
     inkscape:pageopacity="0"
     inkscape:pagecheckerboard="0"
     inkscape:deskcolor="#505050"
     inkscape:document-units="mm"
     showgrid="false"
     inkscape:zoom="3.7687864"
     inkscape:cx="49.220088"
     inkscape:cy="55.19018"
     inkscape:window-width="1366"
     inkscape:window-height="699"
     inkscape:window-x="0"
     inkscape:window-y="32"
     inkscape:window-maximized="1"
     inkscape:current-layer="layer1" /><defs
     id="defs2" /><g
     id="layer1"
     transform="translate(-73.250086,-66.96414)"><path
       id="path435"
       style="fill:#ff4c29;stroke-width:7.38451;stop-color:#000000;fill-opacity:1"
       d="M 84.987871 68.490145 A 8.6244001 8.6244001 0 0 0 76.363591 77.114425 A 8.6244001 8.6244001 0 0 0 84.987871 85.738705 A 8.6244001 8.6244001 0 0 0 93.612151 77.114425 A 8.6244001 8.6244001 0 0 0 84.987871 68.490145 z M 84.987871 70.737553 A 6.3767371 6.3767371 0 0 1 91.364226 77.114425 A 6.3767371 6.3767371 0 0 1 84.987871 83.491297 A 6.3767371 6.3767371 0 0 1 78.610999 77.114425 A 6.3767371 6.3767371 0 0 1 84.987871 70.737553 z " /><path
       style="fill:#ffd5d5;stroke:#ff4c29;stroke-width:2.49891;stroke-linecap:round;stroke-dasharray:none;stroke-opacity:1;stop-color:#000000"
       d="m 90.271795,82.829903 7.934382,7.934381"
       id="path370" /><path
       style="fill:none;fill-opacity:1;stroke:#ff4c29;stroke-width:0.5;stroke-linecap:round;stroke-dasharray:none;stroke-opacity:1;stop-color:#000000"
       d="m 80.074609,76.870913 c 2.344632,-4.061022 7.593248,-3.797396 9.785675,0"
       id="path1758"
       sodipodi:nodetypes="cc" /><path
       style="fill:none;fill-opacity:1;stroke:#ff4c29;stroke-width:0.5;stroke-linecap:round;stroke-dasharray:none;stroke-opacity:1;stop-color:#000000"
       d="m 89.860284,76.96681 c -2.344632,4.061022 -7.593248,3.797396 -9.785675,0"
       id="path1758-6"
       sodipodi:nodetypes="cc" /><path
       id="path1935"
       style="fill:#ff4c29;fill-opacity:1;stroke:#ff4c29;stroke-width:0.674307;stroke-linecap:round;stroke-dasharray:none;stroke-opacity:1;stop-color:#000000"
       d="M 84.943429 75.345024 A 2.0977166 2.0977166 0 0 0 82.845883 77.44257 A 2.0977166 2.0977166 0 0 0 84.943429 79.540633 A 2.0977166 2.0977166 0 0 0 87.040975 77.44257 A 2.0977166 2.0977166 0 0 0 84.943429 75.345024 z M 84.943429 77.241032 A 0.88041389 0.88041389 0 0 1 85.823996 78.121082 A 0.88041389 0.88041389 0 0 1 84.943429 79.001648 A 0.88041389 0.88041389 0 0 1 84.062863 78.121082 A 0.88041389 0.88041389 0 0 1 84.943429 77.241032 z " /></g></svg>
