<?xml version="1.0" encoding="UTF-8" standalone="no"?>
<!-- Created with Inkscape (http://www.inkscape.org/) -->

<svg
   width="170mm"
   height="170mm"
   viewBox="0 0 170 170"
   version="1.1"
   id="svg5"
   inkscape:version="1.2.2 (b0a8486541, 2022-12-01)"
   sodipodi:docname="rollo_serie.svg"
   xmlns:inkscape="http://www.inkscape.org/namespaces/inkscape"
   xmlns:sodipodi="http://sodipodi.sourceforge.net/DTD/sodipodi-0.dtd"
   xmlns="http://www.w3.org/2000/svg"
   xmlns:svg="http://www.w3.org/2000/svg">
  <sodipodi:namedview
     id="namedview7"
     pagecolor="#505050"
     bordercolor="#eeeeee"
     borderopacity="1"
     inkscape:showpageshadow="0"
     inkscape:pageopacity="0"
     inkscape:pagecheckerboard="0"
     inkscape:deskcolor="#505050"
     inkscape:document-units="mm"
     showgrid="false"
     inkscape:zoom="0.67150345"
     inkscape:cx="386.44627"
     inkscape:cy="393.14765"
     inkscape:window-width="1366"
     inkscape:window-height="699"
     inkscape:window-x="0"
     inkscape:window-y="32"
     inkscape:window-maximized="1"
     inkscape:current-layer="g1213" />
  <defs
     id="defs2" />
  <g
     inkscape:label="Layer 1"
     inkscape:groupmode="layer"
     id="layer1"
     transform="translate(-25.462224,-55.799038)">
    <g
       id="g1213"
       transform="translate(3.404982,3.404979)">
      <circle
         style="fill:#808080;fill-opacity:1;stroke:none;stroke-width:0.542844;stroke-linecap:round;stop-color:#000000"
         id="path1187"
         cx="107.05724"
         cy="137.39406"
         r="58.90287" />
      <path
         id="path281"
         style="fill:#cccccc;fill-opacity:1;stroke:none;stroke-width:0.66627;stroke-linecap:round;stop-color:#000000"
         d="m 107.05724,55.799038 a 81.595039,81.595039 0 0 0 -81.595016,81.595022 81.595039,81.595039 0 0 0 81.595016,81.59502 81.595039,81.595039 0 0 0 81.59502,-81.59502 81.595039,81.595039 0 0 0 -81.59502,-81.595022 z m 9.8056,12.741341 a 20.558634,20.558634 0 0 1 17.80408,10.27896 20.558634,20.558634 0 0 1 -7.52512,28.083551 20.558634,20.558634 0 0 1 -28.083551,-7.524599 20.558634,20.558634 0 0 1 7.525121,-28.083558 20.558634,20.558634 0 0 1 10.27947,-2.754354 z M 70.212981,83.780791 A 20.558634,20.558634 0 0 1 90.771416,104.33974 20.558634,20.558634 0 0 1 70.212981,124.89818 20.558634,20.558634 0 0 1 49.654546,104.33974 20.558634,20.558634 0 0 1 70.212981,83.780791 Z m 83.572159,17.398939 a 20.558634,20.558634 0 0 1 10.27896,2.75435 20.558634,20.558634 0 0 1 7.52512,28.08356 20.558634,20.558634 0 0 1 -28.08356,7.52461 20.558634,20.558634 0 0 1 -7.52512,-28.08356 20.558634,20.558634 0 0 1 17.8046,-10.27896 z m -46.95063,18.29087 a 4.1985512,4.1985512 0 0 1 4.1982,4.1982 4.1985512,4.1985512 0 0 1 -4.1982,4.19871 4.1985512,4.1985512 0 0 1 -4.1987,-4.19871 4.1985512,4.1985512 0 0 1 4.1987,-4.1982 z m -12.486051,10.3203 a 4.1985512,4.1985512 0 0 1 1.23455,0.20464 4.1985512,4.1985512 0 0 1 2.695443,5.29064 4.1985512,4.1985512 0 0 1 -5.290117,2.69544 4.1985512,4.1985512 0 0 1 -2.695959,-5.29012 4.1985512,4.1985512 0 0 1 4.056083,-2.9006 z m 25.417561,0 a 4.1985512,4.1985512 0 0 1 4.05609,2.9006 4.1985512,4.1985512 0 0 1 -2.69596,5.29012 4.1985512,4.1985512 0 0 1 -5.29012,-2.69544 4.1985512,4.1985512 0 0 1 2.69544,-5.29064 4.1985512,4.1985512 0 0 1 1.23455,-0.20464 z m -59.436673,2.70061 a 20.558634,20.558634 0 0 1 10.279476,2.75436 20.558634,20.558634 0 0 1 7.525122,28.08355 20.558634,20.558634 0 0 1 -28.083557,7.52461 20.558634,20.558634 0 0 1 -7.525122,-28.08356 20.558634,20.558634 0 0 1 17.804081,-10.27896 z m 46.727893,0.31058 a 4.1985512,4.1985512 0 0 1 4.19871,4.19819 4.1985512,4.1985512 0 0 1 -4.19871,4.19871 4.1985512,4.1985512 0 0 1 -4.19871,-4.19871 4.1985512,4.1985512 0 0 1 4.19871,-4.19819 z m -7.767997,12.00392 a 4.1985512,4.1985512 0 0 1 2.342487,0.79995 4.1985512,4.1985512 0 0 1 0.92863,5.86476 4.1985512,4.1985512 0 0 1 -5.864241,0.92862 4.1985512,4.1985512 0 0 1 -0.929142,-5.86424 4.1985512,4.1985512 0 0 1 3.522266,-1.72909 z m 15.535477,0 a 4.1985512,4.1985512 0 0 1 3.52279,1.72909 4.1985512,4.1985512 0 0 1 -0.92915,5.86424 4.1985512,4.1985512 0 0 1 -5.86424,-0.92862 4.1985512,4.1985512 0 0 1 0.92863,-5.86476 4.1985512,4.1985512 0 0 1 2.34197,-0.79995 z m 29.15481,4.66896 a 20.558634,20.558634 0 0 1 20.55844,20.55844 20.558634,20.558634 0 0 1 -20.55844,20.55895 20.558634,20.558634 0 0 1 -20.55895,-20.55895 20.558634,20.558634 0 0 1 20.55895,-20.55844 z m -46.727889,15.6559 a 20.558634,20.558634 0 0 1 17.804589,10.27895 20.558634,20.558634 0 0 1 -7.52512,28.08356 20.558634,20.558634 0 0 1 -28.08355,-7.5246 20.558634,20.558634 0 0 1 7.525122,-28.08356 20.558634,20.558634 0 0 1 10.278959,-2.75435 z" />
      <circle
         style="fill:none;stroke-width:4.05572;stroke-linecap:round;stop-color:#000000;stroke:#ffffff;stroke-opacity:1"
         id="path342"
         cx="107.05724"
         cy="137.39406"
         r="81.465263" />
    </g>
  </g>
</svg>
